HIERARCHY
ROOT Hips
{
	OFFSET 0.00 0.00 0.00
	CHANNELS 6 Xposition Yposition Zposition Xrotation Yrotation Zrotation
	JOINT Spine
	{
		OFFSET 0.00000 1.70439 2.55658
		CHANNELS 3 Xrotation Yrotation Zrotation
		JOINT Spine1
		{
			OFFSET 0.00000 0.59193 3.35699
			CHANNELS 3 Xrotation Yrotation Zrotation
			JOINT Spine2
			{
				OFFSET 0.00000 0.29710 3.39581
				CHANNELS 3 Xrotation Yrotation Zrotation
				JOINT Spine3
				{
					OFFSET 0.00000 0.00000 3.40878
					CHANNELS 3 Xrotation Yrotation Zrotation
					JOINT Neck
					{
						OFFSET 0.00000 -1.27828 8.94804
						CHANNELS 3 Xrotation Yrotation Zrotation
						JOINT Head
						{
							OFFSET 0.00000 -0.81390 4.61586
							CHANNELS 3 Xrotation Yrotation Zrotation
							End Site
							{
								OFFSET 0.00000 0.00001 5.51796
							}
						}
					}
					JOINT RightShoulder
					{
						OFFSET -1.18875 -1.98124 6.41925
						CHANNELS 3 Xrotation Yrotation Zrotation
						JOINT RightArm
						{
							OFFSET -5.90412 0.00000 0.00000
							CHANNELS 3 Xrotation Yrotation Zrotation
							JOINT RightForeArm
							{
								OFFSET -11.94674 0.00000 0.00000
								CHANNELS 3 Xrotation Yrotation Zrotation
								JOINT RightHand
								{
									OFFSET -10.17720 0.00000 0.00000
									CHANNELS 3 Xrotation Yrotation Zrotation
									JOINT RightHandEnd
									{
										OFFSET -2.84518 0.00000 0.00000
										CHANNELS 3 Xrotation Yrotation Zrotation
										End Site
										{
											OFFSET -2.84518 0.00000 0.00000
										}
									}
									JOINT RightHandThumb1
									{
										OFFSET -1.13807 -1.89679 -0.75871
										CHANNELS 3 Yrotation Xrotation Zrotation
										End Site
										{
											OFFSET -2.74823 -0.73639 0.00000
										}
									}
								}
							}
						}
					}
					JOINT LeftShoulder
					{
						OFFSET 1.18875 -1.98124 6.41925
						CHANNELS 3 Xrotation Yrotation Zrotation
						JOINT LeftArm
						{
							OFFSET 5.90412 0.00000 0.00000
							CHANNELS 3 Xrotation Yrotation Zrotation
							JOINT LeftForeArm
							{
								OFFSET 11.94674 0.00000 0.00000
								CHANNELS 3 Xrotation Yrotation Zrotation
								JOINT LeftHand
								{
									OFFSET 10.17720 0.00000 0.00000
									CHANNELS 3 Xrotation Yrotation Zrotation
									JOINT LeftHandEnd
									{
										OFFSET 2.84518 0.00000 0.00000
										CHANNELS 3 Xrotation Yrotation Zrotation
										End Site
										{
											OFFSET 2.84518 0.00000 0.00000
										}
									}
									JOINT LeftHandThumb1
									{
										OFFSET 1.13807 -1.89679 -0.75871
										CHANNELS 3 Yrotation Xrotation Zrotation
										End Site
										{
											OFFSET 2.74823 -0.73639 0.00000
										}
									}
								}
							}
						}
					}
				}
			}
		}
	}
	JOINT RightUpLeg
	{
		OFFSET -3.52662 0.00000 -1.03025
		CHANNELS 3 Xrotation Yrotation Zrotation
		JOINT RightLeg
		{
			OFFSET 0.00001 0.00000 -17.80159
			CHANNELS 3 Xrotation Yrotation Zrotation
			JOINT RightFoot
			{
				OFFSET 0.00001 0.00000 -16.85992
				CHANNELS 3 Xrotation Yrotation Zrotation
				JOINT RightToeBase
				{
					OFFSET 0.00000 -5.42953 -1.97619
					CHANNELS 3 Xrotation Yrotation Zrotation
					End Site
					{
						OFFSET 0.00000 -2.85300 -0.00000
					}
				}
			}
		}
	}
	JOINT LeftUpLeg
	{
		OFFSET 3.52662 0.00000 -1.03025
		CHANNELS 3 Xrotation Yrotation Zrotation
		JOINT LeftLeg
		{
			OFFSET 0.00001 0.00000 -17.80159
			CHANNELS 3 Xrotation Yrotation Zrotation
			JOINT LeftFoot
			{
				OFFSET 0.00001 0.00000 -16.85992
				CHANNELS 3 Xrotation Yrotation Zrotation
				JOINT LeftToeBase
				{
					OFFSET 0.00000 -5.42953 -1.97619
					CHANNELS 3 Xrotation Yrotation Zrotation
					End Site
					{
						OFFSET 0.00000 -2.85300 -0.00000
					}
				}
			}
		}
	}
}
MOTION
Frames: 9
Frame Time: 0.008342
 5.2516 94.6352 34.4214 6.4184 2.0154 177.0518 3.8606 -0.3256 0.9337 1.5668 -0.1454 0.3714 1.6069 4.6264 6.4126 0.3048 1.3247 -0.1416 1.6698 5.2036 4.7147 0.0674 -0.9801 2.9695 19.0727 -11.4446 7.7929 16.1763 -37.1810 22.6230 -0.0000 0.0000 43.5208 -7.7641 15.3506 6.1148 0.0000 0.0000 -0.0000 0.0000 0.0000 -0.0000 9.8537 15.7458 2.7403 13.2248 44.5028 -14.3824 -0.0000 -0.0000 -35.6549 -1.2941 -11.5955 1.6752 -0.0000 0.0000 0.0000 -0.0000 -0.0000 0.0000 -7.5853 7.0576 -18.6236 76.5252 0.0000 0.0000 -12.9302 3.3879 -23.6056 -7.2264 0.0000 -0.0000 -27.7694 4.1681 6.7217 45.2932 0.0000 0.0000 -11.7691 -3.8170 5.5991 -0.0093 0.0000 -0.0000
 5.2746 94.8653 34.5816 6.2927 2.0542 177.7770 3.8318 -0.2131 0.8515 1.5614 -0.1246 0.3633 1.5535 4.4276 6.1279 0.2787 1.2617 -0.1093 1.5650 4.8477 4.4347 0.1363 -0.9777 2.8868 19.0701 -12.1119 7.8701 17.9961 -36.2275 24.6800 -0.0000 0.0000 44.9364 -3.8780 15.6763 6.2851 0.0000 0.0000 -0.0000 0.0000 0.0000 0.0000 10.0549 15.6129 1.9706 16.3007 44.7674 -17.5345 -0.0000 -0.0000 -36.9364 0.3435 -10.8696 1.3883 -0.0000 -0.0000 0.0000 0.0000 -0.0000 -0.0000 -8.6934 7.3113 -18.9111 76.1600 0.0000 0.0000 -13.3427 3.3135 -23.5016 -7.6570 0.0000 -0.0000 -27.0070 4.4888 6.1924 44.3426 0.0000 0.0000 -11.6847 -3.7586 5.4089 -0.0237 0.0000 -0.0000
 5.2980 95.0870 34.7527 6.1594 2.1160 178.5561 3.8048 -0.0850 0.7715 1.5650 -0.1044 0.3521 1.5015 4.2362 5.8375 0.2466 1.2040 -0.0904 1.4354 4.4894 4.1446 0.1999 -0.9717 2.8022 19.0432 -12.7373 7.9141 19.5959 -35.3813 26.5815 -0.0000 0.0000 46.3521 -0.1514 16.1238 6.0951 -0.0000 0.0000 -0.0000 -0.0000 -0.0000 -0.0000 10.2162 15.4448 1.2255 19.1990 44.9433 -20.5552 -0.0000 -0.0000 -38.3441 1.9768 -10.2219 1.0682 -0.0000 0.0000 0.0000 0.0000 -0.0000 0.0000 -9.7437 7.5802 -19.1685 75.5639 0.0000 0.0000 -13.6738 3.0977 -23.1715 -8.0847 0.0000 -0.0000 -26.1967 4.8563 5.5644 43.2471 0.0000 0.0000 -11.4423 -3.6657 5.2470 -0.0982 0.0000 -0.0000
 5.3242 95.3018 34.9333 6.0351 2.1512 179.3855 3.7958 0.0120 0.6917 1.5782 -0.0807 0.3425 1.4496 4.0484 5.5273 0.2114 1.1461 -0.0698 1.2776 4.1382 3.8471 0.2570 -0.9645 2.7187 19.0023 -13.3098 7.9233 21.0042 -34.6491 28.3764 -0.0000 0.0000 47.7149 3.3407 16.5606 5.6295 0.0000 0.0000 0.0000 -0.0000 -0.0000 0.0000 10.3587 15.2439 0.5039 21.8766 45.0675 -23.4178 -0.0000 -0.0000 -39.8718 3.6175 -9.6539 0.7197 0.0000 0.0000 -0.0000 -0.0000 0.0000 0.0000 -10.7063 7.8027 -19.3908 74.7254 0.0000 0.0000 -13.9429 2.7382 -22.6715 -8.4364 0.0000 -0.0000 -25.3240 5.2046 4.8411 42.0326 0.0000 0.0000 -11.0761 -3.5415 5.0836 -0.2152 0.0000 -0.0000
 5.3529 95.5117 35.1213 5.9295 2.1800 -179.7493 3.8088 0.1214 0.6128 1.5980 -0.0887 0.3179 1.4022 3.8733 5.2314 0.1721 1.0886 -0.0666 1.0982 3.8023 3.5547 0.3027 -0.9559 2.6398 18.9420 -13.8056 7.9232 22.2536 -34.0636 30.0805 -0.0000 0.0001 48.9901 6.5190 16.9293 4.9836 -0.0000 0.0000 -0.0000 0.0000 -0.0000 -0.0000 10.4986 15.0127 -0.1830 24.3359 45.1615 -26.1281 -0.0000 -0.0000 -41.5071 5.2555 -9.1891 0.3478 0.0000 0.0000 -0.0000 -0.0000 -0.0000 -0.0000 -11.5706 8.0011 -19.5583 73.6589 0.0000 0.0000 -14.1893 2.2449 -22.0499 -8.6652 0.0000 -0.0000 -24.3735 5.5371 4.0599 40.6964 0.0000 0.0000 -10.6080 -3.3907 4.9035 -0.3533 0.0000 -0.0000
 5.3872 95.7159 35.3142 5.8157 2.1419 -178.8564 3.8163 0.1534 0.5383 1.6242 -0.0496 0.3187 1.3604 3.6577 4.8828 0.1310 1.0369 -0.0450 0.8955 3.4771 3.2646 0.3382 -0.9384 2.5712 18.8705 -14.2479 7.9188 23.3615 -33.5873 31.7017 -0.0000 0.0001 50.1637 9.3245 17.1900 4.2310 0.0000 -0.0000 0.0000 -0.0000 -0.0000 0.0000 10.6522 14.7445 -0.8363 26.5800 45.2483 -28.6991 -0.0000 -0.0000 -43.2396 6.8929 -8.8279 -0.0205 0.0000 -0.0000 -0.0000 0.0000 0.0000 0.0000 -12.3637 8.0966 -19.6664 72.3546 0.0000 0.0000 -14.4320 1.6460 -21.3805 -8.7544 0.0000 -0.0000 -23.3936 5.7701 3.2420 39.2819 0.0000 0.0000 -10.0854 -3.2171 4.6694 -0.4842 0.0000 -0.0000
 5.4269 95.9176 35.5106 5.7390 2.0556 -177.9435 3.8583 0.1613 0.4587 1.6586 -0.0303 0.3120 1.3145 3.4398 4.5414 0.0903 0.9757 -0.0269 0.6802 3.1826 2.9921 0.3609 -0.9197 2.5098 18.7965 -14.6016 7.9221 24.3478 -33.2514 33.2670 -0.0000 0.0001 51.2104 11.7094 17.3685 3.4641 0.0000 0.0000 -0.0000 0.0000 -0.0000 -0.0000 10.8368 14.4504 -1.4509 28.6301 45.3225 -31.1496 -0.0000 -0.0000 -45.0556 8.5104 -8.5853 -0.3782 -0.0000 0.0000 -0.0000 0.0000 -0.0000 0.0000 -13.0294 8.1101 -19.7139 70.8099 0.0000 0.0000 -14.7014 0.9803 -20.7044 -8.7184 0.0000 -0.0000 -22.3359 5.9098 2.4226 37.7883 0.0000 0.0000 -9.5357 -3.0257 4.3675 -0.5820 0.0000 -0.0000
 5.4729 96.1154 35.7068 5.6520 1.9160 -177.0227 3.8872 0.1539 0.3870 1.6885 -0.0457 0.2744 1.2786 3.2115 4.2436 0.0477 0.9262 -0.0272 0.4585 2.9027 2.7364 0.3660 -0.8916 2.4615 18.7077 -14.8938 7.9557 25.2214 -33.0451 34.7406 -0.0000 0.0001 52.1480 13.6436 17.4703 2.7440 0.0000 -0.0000 0.0000 0.0000 -0.0000 -0.0000 11.0559 14.1112 -2.0206 30.5161 45.3919 -33.5099 -0.0000 -0.0000 -46.9405 10.0870 -8.4555 -0.7045 0.0000 0.0000 -0.0000 -0.0000 0.0000 -0.0000 -13.6277 8.0316 -19.6888 69.0359 0.0000 0.0000 -15.0100 0.2981 -20.0685 -8.5993 0.0000 -0.0000 -21.2716 5.9369 1.6418 36.2448 0.0000 0.0000 -8.9861 -2.8204 3.9806 -0.6250 0.0000 -0.0000
 5.5257 96.3085 35.9000 5.5350 1.7230 -176.0987 3.8856 0.1022 0.3070 1.7164 -0.0459 0.2547 1.2410 2.9734 3.9287 0.0077 0.8596 -0.0086 0.2323 2.6548 2.5049 0.3585 -0.8583 2.4152 18.6394 -15.0968 8.0041 25.9800 -32.9705 36.1753 -0.0000 0.0001 52.9579 15.1084 17.5567 2.1242 -0.0000 -0.0000 -0.0000 0.0000 0.0000 0.0000 11.3218 13.7341 -2.5559 32.2611 45.4379 -35.8003 -0.0000 -0.0000 -48.8829 11.5937 -8.4368 -0.9810 0.0000 -0.0000 0.0000 -0.0000 0.0000 -0.0000 -14.1836 7.8629 -19.5912 67.0375 0.0000 0.0000 -15.3550 -0.3432 -19.4982 -8.4563 0.0000 -0.0000 -20.2422 5.8471 0.9303 34.6776 0.0000 0.0000 -8.4571 -2.6057 3.4978 -0.5992 0.0000 -0.0000
